<?xml version="1.0" encoding="UTF-8"?>
<svg version="1.1" xmlns="http://www.w3.org/2000/svg" width="200" height="200">
<path d="M0 0 C0.65774866 -0.00367669 1.31549733 -0.00735338 1.99317777 -0.01114148 C4.20162631 -0.02217201 6.41002779 -0.02602111 8.61849976 -0.02983093 C10.20037994 -0.03609618 11.78225865 -0.04274304 13.36413574 -0.04974365 C18.56398494 -0.07078338 23.76383442 -0.08114761 28.9637146 -0.09111023 C30.7549173 -0.09515816 32.54611985 -0.09927509 34.33732224 -0.10346031 C42.75482831 -0.1225137 51.17232562 -0.13674305 59.58984911 -0.14507228 C69.29875904 -0.15483836 79.0074406 -0.18114078 88.71627009 -0.22157317 C96.2246913 -0.25176599 103.73304719 -0.26654425 111.24152792 -0.26985329 C115.72380096 -0.27220065 120.20583008 -0.28111968 124.68803787 -0.30631447 C128.90865353 -0.32965495 133.12886571 -0.33380456 137.34952927 -0.32355309 C138.89382014 -0.32305902 140.43813127 -0.32934113 141.98236084 -0.34310913 C151.85710037 -0.42618279 158.93135202 0.65133986 167.3621521 5.89717102 C172.58769875 11.272019 174.67788311 17.90343482 174.66317749 25.27095032 C174.66310196 26.5320311 174.66302643 27.79311188 174.66294861 29.09240723 C174.65784199 30.46873514 174.65262599 31.84506265 174.64730835 33.22138977 C174.64544296 34.62957713 174.64401963 36.03776513 174.64302063 37.44595337 C174.63920498 41.14984432 174.62938282 44.85369597 174.61831665 48.55757141 C174.60808207 52.33808358 174.60351862 56.11860211 174.59848022 59.89912415 C174.58775969 67.31515767 174.5706947 74.73115884 174.5496521 82.14717102 C173.92330368 82.40823135 173.29695526 82.66929169 172.65162659 82.93826294 C171.83446671 83.28797653 171.01730682 83.63769012 170.17538452 83.9980011 C169.3634111 84.34156143 168.55143768 84.68512177 167.71485901 85.03909302 C164.7472322 86.55782177 163.72100303 88.04980433 162.5496521 91.14717102 C161.13806611 98.01562633 161.01853269 104.58927072 163.5496521 111.14717102 C166.81657733 115.32157548 169.57565722 116.62199579 174.5496521 118.14717102 C174.64270082 126.20585512 174.71359227 134.2643114 174.75690079 142.32340145 C174.77769623 146.06636592 174.80586418 149.80896043 174.85140991 153.55171204 C174.89515834 157.16978101 174.91884956 160.78749616 174.92916107 164.4058094 C174.93650091 165.78001531 174.95083294 167.15420382 174.97257233 168.52825737 C175.12000367 178.24097042 173.9042208 184.75589989 168.7996521 192.95967102 C163.42480412 198.18521767 156.7933883 200.27540203 149.4258728 200.26069641 C148.16479202 200.26062088 146.90371124 200.26054535 145.60441589 200.26046753 C144.22808798 200.25536091 142.85176047 200.25014491 141.47543335 200.24482727 C140.06724599 200.24296188 138.65905799 200.24153855 137.25086975 200.24053955 C133.5469788 200.2367239 129.84312715 200.22690174 126.13925171 200.21583557 C122.35873954 200.20560099 118.57822101 200.20103754 114.79769897 200.19599915 C107.38166545 200.18527862 99.96566428 200.16821362 92.5496521 200.14717102 C92.28859177 199.5208226 92.02753143 198.89447418 91.75856018 198.24914551 C91.40884659 197.43198563 91.059133 196.61482574 90.69882202 195.77290344 C90.35526169 194.96093002 90.01170135 194.1489566 89.6577301 193.31237793 C88.13900135 190.34475112 86.64701879 189.31852195 83.5496521 188.14717102 C76.68119679 186.73558503 70.1075524 186.61605161 63.5496521 189.14717102 C59.37524764 192.41409625 58.07482733 195.17317614 56.5496521 200.14717102 C48.490968 200.24021974 40.43251172 200.31111119 32.37342167 200.35441971 C28.6304572 200.37521515 24.88786269 200.4033831 21.14511108 200.44892883 C17.52704211 200.49267726 13.90932696 200.51636848 10.29101372 200.52667999 C8.91680781 200.53401983 7.5426193 200.54835186 6.16856575 200.57009125 C-3.5441473 200.71752259 -10.05907677 199.50173972 -18.2628479 194.39717102 C-23.60009384 188.90743234 -25.57034159 182.2022689 -25.59751892 174.69682312 C-25.60119561 174.03907446 -25.6048723 173.38132579 -25.6086604 172.70364535 C-25.61969093 170.49519681 -25.62354003 168.28679533 -25.62734985 166.07832336 C-25.63361511 164.49644318 -25.64026196 162.91456448 -25.64726257 161.33268738 C-25.6683023 156.13283818 -25.67866653 150.9329887 -25.68862915 145.73310852 C-25.69267708 143.94190582 -25.69679401 142.15070327 -25.70097923 140.35950089 C-25.72003262 131.94199481 -25.73426198 123.5244975 -25.7425912 115.10697401 C-25.75235728 105.39806408 -25.77865971 95.68938252 -25.81909209 85.98055303 C-25.84928491 78.47213182 -25.86406318 70.96377593 -25.86737221 63.45529521 C-25.86971957 58.97302216 -25.8786386 54.49099304 -25.90383339 50.00878525 C-25.92717387 45.78816959 -25.93132348 41.56795741 -25.92107201 37.34729385 C-25.92057794 35.80300298 -25.92686005 34.25869185 -25.94062805 32.71446228 C-26.02370171 22.83972275 -24.94617906 15.7654711 -19.7003479 7.33467102 C-14.21060922 1.99742508 -7.50544578 0.02717733 0 0 Z " fill="#5F54D8" transform="translate(25.450347900390625,-0.1471710205078125)"/>
<path d="M0 0 C3.5625 1.8125 3.5625 1.8125 6 4 C6.53109375 4.4434375 7.0621875 4.886875 7.609375 5.34375 C9.4011699 7.47779786 9.48800544 8.93447506 9.6875 11.6875 C9.78611328 12.89986328 9.78611328 12.89986328 9.88671875 14.13671875 C9.94279297 15.05904297 9.94279297 15.05904297 10 16 C11.22976562 15.95359375 12.45953125 15.9071875 13.7265625 15.859375 C15.3593506 15.82183964 16.99216511 15.78544138 18.625 15.75 C19.43324219 15.71648438 20.24148437 15.68296875 21.07421875 15.6484375 C26.59412172 15.55868298 29.58589122 16.37729248 34 20 C34.598125 20.474375 35.19625 20.94875 35.8125 21.4375 C38.94154218 25.55466076 38.1197359 31.38580953 38.0625 36.3125 C38.05798828 37.05306641 38.05347656 37.79363281 38.04882812 38.55664062 C38.03712175 40.37112899 38.01918898 42.18557534 38 44 C36.89527344 44.28875 35.79054688 44.5775 34.65234375 44.875 C30.99019121 45.75066718 30.99019121 45.75066718 28.5625 48 C26.29601716 52.35164705 26.23293234 56.19198825 27 61 C28.36942449 64.10847573 28.36942449 64.10847573 31 66 C33.31917744 66.71435626 35.65217117 67.38633179 38 68 C38.07623738 75.27735666 38.12867867 82.55460981 38.16479492 89.83227539 C38.1798556 92.3065984 38.20030825 94.78089482 38.22631836 97.25512695 C38.2628203 100.8172869 38.27975404 104.379093 38.29296875 107.94140625 C38.30845261 109.04271378 38.32393646 110.1440213 38.33988953 111.27870178 C38.34120309 117.31079113 37.98767883 121.70717049 35 127 C30.0931354 131.78104756 26.22482219 132.12154966 19.56665039 132.16113281 C17.60925682 132.17554413 17.60925682 132.17554413 15.61231995 132.19024658 C14.19076716 132.1950941 12.76921235 132.19937304 11.34765625 132.203125 C9.88561502 132.20888038 8.4235738 132.21463806 6.96153259 132.22039795 C3.89923757 132.2308896 0.83696866 132.23674464 -2.2253418 132.24023438 C-6.14391221 132.24572328 -10.0621359 132.26976716 -13.9805975 132.29820633 C-16.99952702 132.31685176 -20.01837319 132.32203925 -23.03735542 132.32357025 C-24.48181624 132.32659169 -25.92627576 132.3346031 -27.37067986 132.34775543 C-29.39280161 132.36485809 -31.41506711 132.36108477 -33.43725586 132.35644531 C-35.16122841 132.36191376 -35.16122841 132.36191376 -36.92002869 132.36749268 C-41.64745186 131.80343113 -44.15345972 129.96411532 -47.25 126.4375 C-50.42266116 122.01843625 -50.16082907 118.36133831 -50.17700195 113.0715332 C-50.18357315 112.14614243 -50.19014435 111.22075165 -50.19691467 110.26731873 C-50.21667554 107.19513879 -50.22831762 104.12300785 -50.23828125 101.05078125 C-50.24235678 100.00222647 -50.2464323 98.95367168 -50.25063133 97.87334251 C-50.27150581 92.32156953 -50.28580052 86.76982135 -50.29516602 81.21801758 C-50.30622212 75.48578038 -50.34060912 69.75393225 -50.38033772 64.02183247 C-50.40649952 59.61312646 -50.41485758 55.20451311 -50.41844749 50.79573631 C-50.42331602 48.68306036 -50.43493752 46.57038861 -50.45348549 44.45778847 C-50.47786297 41.49669353 -50.47691404 38.53660426 -50.4699707 35.57543945 C-50.48918579 34.27139664 -50.48918579 34.27139664 -50.50878906 32.94100952 C-50.45934953 27.14188444 -49.36542449 23.75869999 -46 19 C-41.09055818 15.45109264 -36.43595174 15.63177662 -30.625 15.8125 C-29.37783203 15.83280273 -29.37783203 15.83280273 -28.10546875 15.85351562 C-26.07002934 15.88860941 -24.03492709 15.94240772 -22 16 C-21.97470215 15.36030273 -21.9494043 14.72060547 -21.92333984 14.06152344 C-21.7109813 9.75260954 -21.42096064 7.53473379 -18.6875 4.0625 C-12.69205416 -0.53865611 -7.45267672 -0.82807519 0 0 Z " fill="#7D74E0" transform="translate(86,28)"/>
<path d="M0 0 C9.3740625 -0.061875 9.3740625 -0.061875 18.9375 -0.125 C20.89163818 -0.14320801 22.84577637 -0.16141602 24.85913086 -0.18017578 C26.43603238 -0.18602582 28.01293695 -0.19112016 29.58984375 -0.1953125 C30.78389832 -0.2106604 30.78389832 -0.2106604 32.0020752 -0.22631836 C41.72732663 -0.22929108 50.45947677 1.52821776 57.57421875 8.5546875 C63.23260681 15.07237232 62.66274406 22.82724756 62.23095703 31.01855469 C61.58774584 36.53684433 58.41237499 39.6600545 54.5625 43.3125 C46.33755606 48.7289265 39.1937498 49.15053686 29.625 49.0625 C24.860625 49.0315625 24.860625 49.0315625 20 49 C20 57.58 20 66.16 20 75 C13.4 75 6.8 75 0 75 C0 50.25 0 25.5 0 0 Z " fill="#FCFDFE" transform="translate(49,59)"/>
<path d="M0 0 C3.526875 -0.12375 3.526875 -0.12375 7.125 -0.25 C7.85348145 -0.28641602 8.58196289 -0.32283203 9.33251953 -0.36035156 C14.39465169 -0.44547556 17.09432104 0.88970247 21 4 C22.64156736 5.64156736 22.28815992 7.49215801 22.375 9.75 C22.35176468 13.81037168 22.2199311 14.71640463 19.625 18.0625 C15.42067243 21.16569416 12.44134593 21.12280094 7.375 21.0625 C4.94125 21.041875 2.5075 21.02125 0 21 C0 14.07 0 7.14 0 0 Z " fill="#7E76E0" transform="translate(69,73)"/>
</svg>
